<?xml version="1.0" encoding="iso-8859-1"?>
<!-- Uploaded to: SVG Repo, www.svgrepo.com, Generator: SVG Repo Mixer Tools -->
<svg height="800px" width="800px" version="1.1" id="Layer_1" xmlns="http://www.w3.org/2000/svg" xmlns:xlink="http://www.w3.org/1999/xlink" 
	 viewBox="0 0 512 512" xml:space="preserve">
<path style="fill:#F7B239;" d="M448.12,410.766l-29.276-33.108l-29.29-33.136l-29.276-33.094v-0.014l-28.761-32.537v-0.014
	c-42.068-22.49-62.208,11.157-82.301,14.028l6.79,18.398l55.418,48.98l33.108,29.276h0.014l33.108,29.29h0.014l33.094,29.276h0.014
	l31.617,27.967l25.396-3.69l8.284-29.99L448.12,410.766z"/>
<path style="fill:#F95428;" d="M256.005,146.052c-2.243,3.01-4.25,6.173-6.062,9.462c-20.971,37.902-15.314,92.26-19.118,118.987
	l-24.664,6.953l-25.667-2.592c-8.821-5.142-17.822-10.953-26.894-17.39c-19.522-13.851-39.365-30.558-58.539-49.732
	C16.736,133.414-20.65,43.801,11.58,11.57c4.78-4.78,10.813-8.026,17.892-9.838c0.056,0,0.098-0.014,0.153-0.028
	C70.314-8.593,145.114,28.417,211.749,95.052c8.166,8.152,15.885,16.443,23.117,24.776c0.056,0.07,0.111,0.125,0.167,0.195
	C242.572,128.676,249.554,137.385,256.005,146.052z"/>
<path style="fill:#E54728;" d="M262.529,168.099c-23.131,33.54-27.997,80.427-31.704,106.401l-24.664,6.953l-14.255,9.29
	c-0.056-0.042-3.624-5.816-3.68-5.844l-7.732-6.038c-8.821-5.142-17.822-10.953-26.894-17.39
	c-19.522-13.851-39.365-30.558-58.539-49.732C16.736,133.414-20.65,43.801,11.58,11.57c4.78-4.78,10.813-8.026,17.892-9.838
	c0.056,0,0.098-0.014,0.153-0.028c-10.298,40.689,26.699,115.489,93.333,182.138c15.857,15.857,32.175,30.001,48.395,42.263
	c7.845-24.887,23.229-53.481,44.855-82.534c5.825-7.845,12.109-15.718,18.826-23.549c7.539,8.653,14.52,17.362,20.971,26.03
	C253.762,149.062,264.341,164.811,262.529,168.099z"/>
<polygon style="fill:#E09B2D;" points="274.51,281.175 332.84,338.864 311.423,360.281 278.872,331.507 249.846,305.839 "/>
<path style="fill:#F95428;" d="M506.827,441.492c6.898,6.898,6.898,18.101,0,24.999L466.5,506.817
	c-6.911,6.912-18.101,6.912-25.012,0l-2.411-2.411c-6.912-6.912-6.912-18.101,0-25.012l3.316-3.316l33.68-33.68l3.33-3.33
	c6.898-6.898,18.101-6.898,24.999,0L506.827,441.492z"/>
<polygon style="fill:#F7B239;" points="206.162,249.837 180.494,278.862 151.719,311.413 122.443,344.522 93.167,377.658 
	63.876,410.766 35.924,442.398 44.668,473.288 69.603,476.077 101.235,448.111 134.343,418.834 167.465,389.558 200.588,360.281 
	256.005,311.288 262.164,305.839 252.062,277.974 "/>
<g>
	<polygon style="fill:#F95428;" points="418.844,377.658 448.12,410.766 410.776,448.111 410.762,448.111 377.668,418.834 	"/>
	<polygon style="fill:#F95428;" points="360.277,311.427 389.554,344.522 344.545,389.544 344.531,389.544 311.423,360.268 	"/>
</g>
<g>
	<polygon style="fill:#E09B2D;" points="410.776,448.125 426.94,431.961 456.885,461.599 442.407,476.077 	"/>
	<polygon style="fill:#E09B2D;" points="344.531,389.558 364.207,369.896 395.573,400.928 377.668,418.834 	"/>
</g>
<g>
	<path style="fill:#E54728;" d="M442.407,476.077l14.478-14.478l27.562,27.27L466.5,506.817c-6.898,6.912-18.101,6.912-24.999,0
		l-2.425-2.411c-6.898-6.912-6.898-18.101,0-25.012L442.407,476.077z"/>
	<polygon style="fill:#E54728;" points="377.668,418.834 395.573,400.928 426.94,431.961 410.776,448.125 	"/>
	<polygon style="fill:#E54728;" points="332.84,338.864 364.207,369.896 344.531,389.558 311.423,360.281 	"/>
</g>
<g>
	<polygon style="fill:#E09B2D;" points="63.876,410.766 80.04,426.93 50.402,456.875 35.924,442.398 	"/>
	<polygon style="fill:#E09B2D;" points="122.443,344.522 142.105,364.197 111.072,395.564 93.167,377.658 	"/>
	<polygon style="fill:#E09B2D;" points="230.826,274.501 173.137,332.83 151.719,311.413 180.494,278.862 206.162,249.837 	"/>
</g>
<g>
	<path style="fill:#2BA5F7;" d="M72.92,504.406l-2.411,2.411c-6.898,6.912-18.101,6.912-24.999,0L5.184,466.49
		c-6.912-6.898-6.912-18.101,0-24.999l2.411-2.425c6.912-6.898,18.101-6.898,25.012,0l3.316,3.33l36.996,36.996
		C79.831,486.305,79.831,497.495,72.92,504.406z"/>
	<polygon style="fill:#2BA5F7;" points="134.343,418.834 101.235,448.111 80.04,426.93 63.876,410.766 93.167,377.658 
		111.072,395.564 	"/>
	<polygon style="fill:#2BA5F7;" points="200.588,360.281 167.465,389.558 142.105,364.197 122.443,344.522 151.719,311.413 
		173.137,332.83 	"/>
</g>
<g>
	<path style="fill:#2197D8;" d="M35.924,442.398l14.478,14.478l-27.27,27.562L5.184,466.49c-6.912-6.898-6.912-18.101,0-24.999
		l2.411-2.425c6.912-6.898,18.101-6.898,25.012,0L35.924,442.398z"/>
	<polygon style="fill:#2197D8;" points="93.167,377.658 111.072,395.564 80.04,426.93 63.876,410.766 	"/>
	<polygon style="fill:#2197D8;" points="173.137,332.83 142.105,364.197 122.443,344.522 151.719,311.413 	"/>
</g>
<path style="fill:#2BA5F7;" d="M500.431,11.584c32.217,32.217-5.156,121.829-83.482,200.155
	c-28.078,28.078-57.619,50.903-85.432,67.123c-25.347,14.785-49.258,24.107-69.352,26.977l-56.003-56.003h-0.014
	c4.139-29.04,21.766-66.036,49.858-103.784c12.694-17.07,27.549-34.293,44.256-51C378.587,16.726,468.2-20.66,500.431,11.584z"/>
<path style="fill:#2197D8;" d="M286.587,176.634c12.694-17.07,27.549-34.293,44.256-51C396.428,60.05,469.917,23.181,511.015,31.846
	c-1.682-7.98-5.069-14.747-10.309-19.986c-32.231-32.244-121.843,5.142-200.169,83.468c-16.707,16.707-31.562,33.931-44.256,51
	c-28.092,37.749-45.719,74.745-49.858,103.784h0.014l30.294,30.294C240.872,251.368,258.498,214.377,286.587,176.634z"/>
</svg>