<?xml version="1.0" encoding="iso-8859-1"?>
<!-- Uploaded to: SVG Repo, www.svgrepo.com, Generator: SVG Repo Mixer Tools -->
<svg height="800px" width="800px" version="1.1" id="Layer_1" xmlns="http://www.w3.org/2000/svg" xmlns:xlink="http://www.w3.org/1999/xlink" 
	 viewBox="0 0 511.999 511.999" xml:space="preserve">
<path style="fill:#6E6057;" d="M256,184.724c-90.228,0-163.638,73.41-163.638,163.638S165.772,511.999,256,511.999
	s163.638-73.41,163.638-163.638S346.227,184.724,256,184.724z M256,478.143c-71.558,0-129.782-58.218-129.782-129.782
	S184.441,218.58,256,218.58s129.782,58.218,129.782,129.782S327.558,478.143,256,478.143z"/>
<path style="fill:#615349;" d="M256,184.724v33.856c71.558,0,129.782,58.218,129.782,129.782S327.558,478.143,256,478.143v33.856
	c90.228,0,163.638-73.41,163.638-163.638S346.227,184.724,256,184.724z"/>
<path style="fill:#DA9A2B;" d="M256,331.772h-78.998c-9.345,0-16.928-7.577-16.928-16.928s7.583-16.815,16.928-16.815H256
	c9.345,0,16.928,7.464,16.928,16.815C272.928,324.195,265.345,331.772,256,331.772z"/>
<path style="fill:#6E6057;" d="M256,91.002c-9.345,0-16.928,7.577-16.928,16.928c0,5.251,0,211.545,0,206.575
	c0,9.349,7.579,16.928,16.928,16.928l0,0c9.349,0,16.928-7.579,16.928-16.928V107.93C272.928,98.579,265.345,91.002,256,91.002z"/>
<path style="fill:#615349;" d="M272.928,314.506V107.93c0-9.351-7.583-16.928-16.928-16.928v240.431
	C265.345,331.434,272.928,323.857,272.928,314.506z"/>
<path style="fill:#CAD1D7;" d="M256,399.146c-28.003,0-50.784-22.781-50.784-50.784c0-28.004,22.781-50.784,50.784-50.784
	s50.784,22.781,50.784,50.784C306.784,376.365,284.003,399.146,256,399.146z"/>
<path style="fill:#B7C5D2;" d="M306.784,348.362c0-28.004-22.781-50.784-50.784-50.784v101.568
	C284.003,399.146,306.784,376.366,306.784,348.362z"/>
<path style="fill:#CF8B27;" d="M334.997,399.484H256c-9.345,0-16.928-7.577-16.928-16.928s7.583-16.815,16.928-16.815h78.998
	c9.345,0,16.928,7.464,16.928,16.815C351.925,391.907,344.343,399.484,334.997,399.484z"/>
<path style="fill:#8C6D50;" d="M320.912,128.583H191.086c-29.547,0-53.583-23.811-53.583-53.357v-21.64
	c0-15.781,6.91-30.687,18.956-40.887c12.035-10.211,27.861-14.554,43.444-11.968l129.826,21.64
	c25.933,4.32,44.767,26.549,44.767,52.856C374.496,104.772,350.459,128.583,320.912,128.583z"/>
<path style="fill:#765B43;" d="M329.729,22.369L256,10.079v118.503h64.913c29.547,0,53.583-23.811,53.583-53.357
	C374.496,48.918,355.661,26.689,329.729,22.369z"/>
</svg>